<?xml version="1.0" standalone="no"?>
<!DOCTYPE svg PUBLIC "-//W3C//DTD SVG 20010904//EN"
 "http://www.w3.org/TR/2001/REC-SVG-20010904/DTD/svg10.dtd">
<svg version="1.0" xmlns="http://www.w3.org/2000/svg"
 width="291.000000pt" height="291.000000pt" viewBox="0 0 291.000000 291.000000"
 preserveAspectRatio="xMidYMid meet">
<metadata>
Created by potrace 1.11, written by Peter Selinger 2001-2013
</metadata>
<g transform="translate(0.000000,291.000000) scale(0.100000,-0.100000)"
fill="#000000" stroke="none">
<path d="M1210 2467 c-29 -61 -70 -147 -91 -190 l-37 -77 -34 62 c-19 35 -42
80 -52 101 -10 21 -19 37 -21 35 -2 -2 11 -68 29 -147 l33 -144 -94 -196 c-52
-108 -106 -221 -120 -251 l-26 -55 -18 110 c-10 61 -21 126 -23 145 -3 19 -7
45 -10 58 -3 13 -10 58 -16 100 -6 41 -12 77 -14 79 -2 2 -8 -13 -14 -34 -9
-35 -115 -383 -197 -648 -35 -115 -78 -255 -125 -415 -15 -52 -31 -104 -35
-115 l-7 -20 14 20 c8 11 36 61 63 110 72 135 217 399 223 405 4 4 -1 -54 -12
-150 -3 -19 -10 -80 -16 -135 -17 -153 -19 -171 -34 -300 -8 -66 -14 -127 -14
-135 0 -8 -2 -35 -6 -60 -10 -68 -15 -109 -21 -170 -8 -76 -14 -129 -21 -172
-3 -21 -4 -38 -1 -38 5 0 28 68 157 470 45 140 108 336 140 435 119 367 233
720 234 732 1 7 5 16 9 19 4 4 7 16 7 28 0 37 17 2 42 -86 l25 -87 -49 -133
c-27 -73 -58 -155 -68 -183 -12 -31 -21 -89 -24 -155 -8 -147 -15 -277 -21
-405 -3 -60 -7 -144 -10 -185 -2 -41 -7 -129 -10 -195 -3 -66 -8 -149 -10
-185 -5 -85 -14 -107 180 470 90 267 166 478 169 470 7 -18 65 -227 72 -255 2
-11 49 -182 104 -380 55 -198 102 -368 105 -379 9 -37 15 -29 16 20 1 27 2 60
3 74 2 14 6 77 10 140 4 63 9 129 11 145 2 17 6 77 10 135 4 58 8 121 10 140
2 19 6 85 10 145 4 61 8 122 10 136 2 15 6 78 10 140 4 63 9 125 10 139 2 14
4 47 4 75 1 29 5 45 10 40 5 -6 43 -89 84 -187 l75 -176 -13 -89 c-7 -48 -16
-110 -19 -138 -4 -27 -18 -129 -31 -225 -13 -96 -26 -191 -29 -210 -2 -19 -7
-55 -10 -80 -4 -25 -9 -62 -11 -82 -11 -82 -15 -114 -21 -143 -14 -70 11 0
121 330 64 193 120 353 124 358 4 4 40 -69 80 -161 l73 -169 -22 -54 c-12 -30
-28 -67 -35 -84 -33 -76 -103 -255 -100 -255 2 0 36 48 76 108 40 59 100 148
134 197 34 50 115 168 180 264 l118 174 -187 183 c-185 180 -187 183 -181 217
5 25 -2 61 -25 133 -18 55 -36 112 -41 128 l-9 29 32 -29 c18 -16 70 -65 117
-110 48 -44 115 -107 150 -140 l64 -59 -45 85 c-25 47 -87 161 -137 253 -50
93 -91 171 -91 174 0 7 50 120 105 238 77 163 116 247 137 295 l19 45 -28 -31
c-33 -36 -254 -283 -333 -372 -30 -34 -58 -62 -61 -62 -3 0 -13 24 -21 53 -9
28 -41 135 -72 237 -31 101 -56 188 -56 192 0 5 72 8 160 8 l160 0 0 85 0 85
-245 0 -245 0 0 -85 0 -85 65 0 c45 0 65 -4 66 -12 0 -7 2 -22 4 -33 3 -11 7
-51 11 -90 3 -38 8 -72 9 -75 2 -3 6 -41 10 -85 3 -44 8 -87 10 -95 2 -8 7
-42 10 -75 3 -33 8 -73 10 -90 6 -40 44 -364 52 -437 13 -129 -9 -88 -108 203
-55 162 -132 386 -171 499 -38 113 -75 221 -81 240 -10 28 -13 -82 -17 -524
l-5 -560 -77 196 c-71 180 -77 199 -73 254 2 32 7 118 10 189 8 185 14 308 21
395 3 45 2 71 -4 65 -4 -5 -44 -106 -87 -223 l-78 -212 -35 77 c-19 43 -34 87
-35 98 0 11 32 119 71 240 39 120 70 220 68 222 -1 2 -27 -48 -56 -110z m943
-1391 l84 -149 -64 -156 c-35 -85 -65 -157 -68 -159 -2 -2 -8 11 -14 30 -5 18
-34 105 -64 192 l-55 159 40 124 c22 69 44 121 49 116 4 -4 46 -75 92 -157z"/>
<path d="M1277 903 c-8 -21 -26 -63 -40 -93 -63 -139 -147 -331 -147 -339 0
-4 37 -50 83 -102 45 -52 100 -116 121 -142 21 -26 40 -46 43 -44 2 2 -26 69
-61 149 -48 107 -64 154 -60 175 3 15 23 118 44 228 21 110 37 201 36 203 -2
1 -10 -14 -19 -35z"/>
<path d="M1300 581 c0 -5 3 -11 8 -13 4 -2 22 -20 41 -40 l33 -36 -46 -72
c-37 -56 -42 -68 -22 -53 46 36 139 124 135 127 -23 20 -149 94 -149 87z"/>
</g>
</svg>
